<?xml version="1.0" encoding="utf-8" standalone="no"?>
<!DOCTYPE svg PUBLIC "-//W3C//DTD SVG 1.1//EN"
  "http://www.w3.org/Graphics/SVG/1.1/DTD/svg11.dtd">
<svg xmlns:xlink="http://www.w3.org/1999/xlink" width="1008pt" height="576pt" viewBox="0 0 504 270" xmlns="http://www.w3.org/2000/svg" version="1.1">
 <metadata>
  <rdf:RDF xmlns:dc="http://purl.org/dc/elements/1.1/" xmlns:cc="http://creativecommons.org/ns#" xmlns:rdf="http://www.w3.org/1999/02/22-rdf-syntax-ns#">
   <cc:Work>
    <dc:type rdf:resource="http://purl.org/dc/dcmitype/StillImage"/>
    <dc:date>2024-02-28T21:46:37.744988</dc:date>
    <dc:format>image/svg+xml</dc:format>
    <dc:creator>
     <cc:Agent>
      <dc:title>Matplotlib v3.8.2, https://matplotlib.org/</dc:title>
     </cc:Agent>
    </dc:creator>
   </cc:Work>
  </rdf:RDF>
 </metadata>
 <defs>
  <style type="text/css">*{stroke-linejoin: round; stroke-linecap: butt}</style>
 </defs>
 <g id="figure_1">
  <g id="patch_1">
   <path d="M 0 288 
L 504 288 
L 504 0 
L 0 0 
z
" style="fill: #ffffff"/>
  </g>
  <g id="axes_1">
   <g id="patch_2">
    <path d="M 45.83 247.48 
L 493.2 247.48 
L 493.2 10.8 
L 45.83 10.8 
z
" style="fill: #eaeaf2"/>
   </g>
   <g id="matplotlib.axis_1">
    <g id="xtick_1">
     <g id="line2d_1">
      <path d="M 64.546213 247.48 
L 64.546213 10.8 
" clip-path="url(#p3de947d24e)" style="fill: none; stroke: #ffffff; stroke-linecap: round"/>
     </g>
     <g id="line2d_2"/>
     <g id="text_1">
      <!-- 0.4 -->
      <g style="fill: #262626" transform="translate(57.596213 261.637812) scale(0.1 -0.1)">
       <defs>
        <path id="ArialMT-30" d="M 266 2259 
Q 266 3072 433 3567 
Q 600 4063 929 4331 
Q 1259 4600 1759 4600 
Q 2128 4600 2406 4451 
Q 2684 4303 2865 4023 
Q 3047 3744 3150 3342 
Q 3253 2941 3253 2259 
Q 3253 1453 3087 958 
Q 2922 463 2592 192 
Q 2263 -78 1759 -78 
Q 1097 -78 719 397 
Q 266 969 266 2259 
z
M 844 2259 
Q 844 1131 1108 757 
Q 1372 384 1759 384 
Q 2147 384 2411 759 
Q 2675 1134 2675 2259 
Q 2675 3391 2411 3762 
Q 2147 4134 1753 4134 
Q 1366 4134 1134 3806 
Q 844 3388 844 2259 
z
" transform="scale(0.015625)"/>
        <path id="ArialMT-2e" d="M 581 0 
L 581 641 
L 1222 641 
L 1222 0 
L 581 0 
z
" transform="scale(0.015625)"/>
        <path id="ArialMT-34" d="M 2069 0 
L 2069 1097 
L 81 1097 
L 81 1613 
L 2172 4581 
L 2631 4581 
L 2631 1613 
L 3250 1613 
L 3250 1097 
L 2631 1097 
L 2631 0 
L 2069 0 
z
M 2069 1613 
L 2069 3678 
L 634 1613 
L 2069 1613 
z
" transform="scale(0.015625)"/>
       </defs>
       <use xlink:href="#ArialMT-30"/>
       <use xlink:href="#ArialMT-2e" x="55.615234"/>
       <use xlink:href="#ArialMT-34" x="83.398438"/>
      </g>
     </g>
    </g>
    <g id="xtick_2">
     <g id="line2d_3">
      <path d="M 115.586062 247.48 
L 115.586062 10.8 
" clip-path="url(#p3de947d24e)" style="fill: none; stroke: #ffffff; stroke-linecap: round"/>
     </g>
     <g id="line2d_4"/>
     <g id="text_2">
      <!-- 0.6 -->
      <g style="fill: #262626" transform="translate(108.636062 261.637812) scale(0.1 -0.1)">
       <defs>
        <path id="ArialMT-36" d="M 3184 3459 
L 2625 3416 
Q 2550 3747 2413 3897 
Q 2184 4138 1850 4138 
Q 1581 4138 1378 3988 
Q 1113 3794 959 3422 
Q 806 3050 800 2363 
Q 1003 2672 1297 2822 
Q 1591 2972 1913 2972 
Q 2475 2972 2870 2558 
Q 3266 2144 3266 1488 
Q 3266 1056 3080 686 
Q 2894 316 2569 119 
Q 2244 -78 1831 -78 
Q 1128 -78 684 439 
Q 241 956 241 2144 
Q 241 3472 731 4075 
Q 1159 4600 1884 4600 
Q 2425 4600 2770 4297 
Q 3116 3994 3184 3459 
z
M 888 1484 
Q 888 1194 1011 928 
Q 1134 663 1356 523 
Q 1578 384 1822 384 
Q 2178 384 2434 671 
Q 2691 959 2691 1453 
Q 2691 1928 2437 2201 
Q 2184 2475 1800 2475 
Q 1419 2475 1153 2201 
Q 888 1928 888 1484 
z
" transform="scale(0.015625)"/>
       </defs>
       <use xlink:href="#ArialMT-30"/>
       <use xlink:href="#ArialMT-2e" x="55.615234"/>
       <use xlink:href="#ArialMT-36" x="83.398438"/>
      </g>
     </g>
    </g>
    <g id="xtick_3">
     <g id="line2d_5">
      <path d="M 166.62591 247.48 
L 166.62591 10.8 
" clip-path="url(#p3de947d24e)" style="fill: none; stroke: #ffffff; stroke-linecap: round"/>
     </g>
     <g id="line2d_6"/>
     <g id="text_3">
      <!-- 0.8 -->
      <g style="fill: #262626" transform="translate(159.67591 261.637812) scale(0.1 -0.1)">
       <defs>
        <path id="ArialMT-38" d="M 1131 2484 
Q 781 2613 612 2850 
Q 444 3088 444 3419 
Q 444 3919 803 4259 
Q 1163 4600 1759 4600 
Q 2359 4600 2725 4251 
Q 3091 3903 3091 3403 
Q 3091 3084 2923 2848 
Q 2756 2613 2416 2484 
Q 2838 2347 3058 2040 
Q 3278 1734 3278 1309 
Q 3278 722 2862 322 
Q 2447 -78 1769 -78 
Q 1091 -78 675 323 
Q 259 725 259 1325 
Q 259 1772 486 2073 
Q 713 2375 1131 2484 
z
M 1019 3438 
Q 1019 3113 1228 2906 
Q 1438 2700 1772 2700 
Q 2097 2700 2305 2904 
Q 2513 3109 2513 3406 
Q 2513 3716 2298 3927 
Q 2084 4138 1766 4138 
Q 1444 4138 1231 3931 
Q 1019 3725 1019 3438 
z
M 838 1322 
Q 838 1081 952 856 
Q 1066 631 1291 507 
Q 1516 384 1775 384 
Q 2178 384 2440 643 
Q 2703 903 2703 1303 
Q 2703 1709 2433 1975 
Q 2163 2241 1756 2241 
Q 1359 2241 1098 1978 
Q 838 1716 838 1322 
z
" transform="scale(0.015625)"/>
       </defs>
       <use xlink:href="#ArialMT-30"/>
       <use xlink:href="#ArialMT-2e" x="55.615234"/>
       <use xlink:href="#ArialMT-38" x="83.398438"/>
      </g>
     </g>
    </g>
    <g id="xtick_4">
     <g id="line2d_7">
      <path d="M 217.665758 247.48 
L 217.665758 10.8 
" clip-path="url(#p3de947d24e)" style="fill: none; stroke: #ffffff; stroke-linecap: round"/>
     </g>
     <g id="line2d_8"/>
     <g id="text_4">
      <!-- 1.0 -->
      <g style="fill: #262626" transform="translate(210.715758 261.637812) scale(0.1 -0.1)">
       <defs>
        <path id="ArialMT-31" d="M 2384 0 
L 1822 0 
L 1822 3584 
Q 1619 3391 1289 3197 
Q 959 3003 697 2906 
L 697 3450 
Q 1169 3672 1522 3987 
Q 1875 4303 2022 4600 
L 2384 4600 
L 2384 0 
z
" transform="scale(0.015625)"/>
       </defs>
       <use xlink:href="#ArialMT-31"/>
       <use xlink:href="#ArialMT-2e" x="55.615234"/>
       <use xlink:href="#ArialMT-30" x="83.398438"/>
      </g>
     </g>
    </g>
    <g id="xtick_5">
     <g id="line2d_9">
      <path d="M 268.705607 247.48 
L 268.705607 10.8 
" clip-path="url(#p3de947d24e)" style="fill: none; stroke: #ffffff; stroke-linecap: round"/>
     </g>
     <g id="line2d_10"/>
     <g id="text_5">
      <!-- 1.2 -->
      <g style="fill: #262626" transform="translate(261.755607 261.637812) scale(0.1 -0.1)">
       <defs>
        <path id="ArialMT-32" d="M 3222 541 
L 3222 0 
L 194 0 
Q 188 203 259 391 
Q 375 700 629 1000 
Q 884 1300 1366 1694 
Q 2113 2306 2375 2664 
Q 2638 3022 2638 3341 
Q 2638 3675 2398 3904 
Q 2159 4134 1775 4134 
Q 1369 4134 1125 3890 
Q 881 3647 878 3216 
L 300 3275 
Q 359 3922 746 4261 
Q 1134 4600 1788 4600 
Q 2447 4600 2831 4234 
Q 3216 3869 3216 3328 
Q 3216 3053 3103 2787 
Q 2991 2522 2730 2228 
Q 2469 1934 1863 1422 
Q 1356 997 1212 845 
Q 1069 694 975 541 
L 3222 541 
z
" transform="scale(0.015625)"/>
       </defs>
       <use xlink:href="#ArialMT-31"/>
       <use xlink:href="#ArialMT-2e" x="55.615234"/>
       <use xlink:href="#ArialMT-32" x="83.398438"/>
      </g>
     </g>
    </g>
    <g id="xtick_6">
     <g id="line2d_11">
      <path d="M 319.745455 247.48 
L 319.745455 10.8 
" clip-path="url(#p3de947d24e)" style="fill: none; stroke: #ffffff; stroke-linecap: round"/>
     </g>
     <g id="line2d_12"/>
     <g id="text_6">
      <!-- 1.4 -->
      <g style="fill: #262626" transform="translate(312.795455 261.637812) scale(0.1 -0.1)">
       <use xlink:href="#ArialMT-31"/>
       <use xlink:href="#ArialMT-2e" x="55.615234"/>
       <use xlink:href="#ArialMT-34" x="83.398438"/>
      </g>
     </g>
    </g>
    <g id="xtick_7">
     <g id="line2d_13">
      <path d="M 370.785303 247.48 
L 370.785303 10.8 
" clip-path="url(#p3de947d24e)" style="fill: none; stroke: #ffffff; stroke-linecap: round"/>
     </g>
     <g id="line2d_14"/>
     <g id="text_7">
      <!-- 1.6 -->
      <g style="fill: #262626" transform="translate(363.835303 261.637812) scale(0.1 -0.1)">
       <use xlink:href="#ArialMT-31"/>
       <use xlink:href="#ArialMT-2e" x="55.615234"/>
       <use xlink:href="#ArialMT-36" x="83.398438"/>
      </g>
     </g>
    </g>
    <g id="xtick_8">
     <g id="line2d_15">
      <path d="M 421.825152 247.48 
L 421.825152 10.8 
" clip-path="url(#p3de947d24e)" style="fill: none; stroke: #ffffff; stroke-linecap: round"/>
     </g>
     <g id="line2d_16"/>
     <g id="text_8">
      <!-- 1.8 -->
      <g style="fill: #262626" transform="translate(414.875152 261.637812) scale(0.1 -0.1)">
       <use xlink:href="#ArialMT-31"/>
       <use xlink:href="#ArialMT-2e" x="55.615234"/>
       <use xlink:href="#ArialMT-38" x="83.398438"/>
      </g>
     </g>
    </g>
    <g id="xtick_9">
     <g id="line2d_17">
      <path d="M 472.865 247.48 
L 472.865 10.8 
" clip-path="url(#p3de947d24e)" style="fill: none; stroke: #ffffff; stroke-linecap: round"/>
     </g>
     <g id="line2d_18"/>
     <g id="text_9">
      <!-- 2.0 -->
      <g style="fill: #262626" transform="translate(465.915 261.637812) scale(0.1 -0.1)">
       <use xlink:href="#ArialMT-32"/>
       <use xlink:href="#ArialMT-2e" x="55.615234"/>
       <use xlink:href="#ArialMT-30" x="83.398438"/>
      </g>
     </g>
    </g>
    <g id="text_10">
     <!-- u -->
     <g style="fill: #262626" transform="translate(266.456484 275.498906) scale(0.11 -0.11)">
      <defs>
       <path id="ArialMT-75" d="M 2597 0 
L 2597 488 
Q 2209 -75 1544 -75 
Q 1250 -75 995 37 
Q 741 150 617 320 
Q 494 491 444 738 
Q 409 903 409 1263 
L 409 3319 
L 972 3319 
L 972 1478 
Q 972 1038 1006 884 
Q 1059 663 1231 536 
Q 1403 409 1656 409 
Q 1909 409 2131 539 
Q 2353 669 2445 892 
Q 2538 1116 2538 1541 
L 2538 3319 
L 3100 3319 
L 3100 0 
L 2597 0 
z
" transform="scale(0.015625)"/>
      </defs>
      <use xlink:href="#ArialMT-75"/>
     </g>
    </g>
   </g>
   <g id="matplotlib.axis_2">
    <g id="ytick_1">
     <g id="line2d_19">
      <path d="M 45.83 245.05642 
L 493.2 245.05642 
" clip-path="url(#p3de947d24e)" style="fill: none; stroke: #ffffff; stroke-linecap: round"/>
     </g>
     <g id="line2d_20"/>
     <g id="text_11">
      <!-- 1.0 -->
      <g style="fill: #262626" transform="translate(24.93 248.635326) scale(0.1 -0.1)">
       <use xlink:href="#ArialMT-31"/>
       <use xlink:href="#ArialMT-2e" x="55.615234"/>
       <use xlink:href="#ArialMT-30" x="83.398438"/>
      </g>
     </g>
    </g>
    <g id="ytick_2">
     <g id="line2d_21">
      <path d="M 45.83 196.914235 
L 493.2 196.914235 
" clip-path="url(#p3de947d24e)" style="fill: none; stroke: #ffffff; stroke-linecap: round"/>
     </g>
     <g id="line2d_22"/>
     <g id="text_12">
      <!-- 1.5 -->
      <g style="fill: #262626" transform="translate(24.93 200.493141) scale(0.1 -0.1)">
       <defs>
        <path id="ArialMT-35" d="M 266 1200 
L 856 1250 
Q 922 819 1161 601 
Q 1400 384 1738 384 
Q 2144 384 2425 690 
Q 2706 997 2706 1503 
Q 2706 1984 2436 2262 
Q 2166 2541 1728 2541 
Q 1456 2541 1237 2417 
Q 1019 2294 894 2097 
L 366 2166 
L 809 4519 
L 3088 4519 
L 3088 3981 
L 1259 3981 
L 1013 2750 
Q 1425 3038 1878 3038 
Q 2478 3038 2890 2622 
Q 3303 2206 3303 1553 
Q 3303 931 2941 478 
Q 2500 -78 1738 -78 
Q 1113 -78 717 272 
Q 322 622 266 1200 
z
" transform="scale(0.015625)"/>
       </defs>
       <use xlink:href="#ArialMT-31"/>
       <use xlink:href="#ArialMT-2e" x="55.615234"/>
       <use xlink:href="#ArialMT-35" x="83.398438"/>
      </g>
     </g>
    </g>
    <g id="ytick_3">
     <g id="line2d_23">
      <path d="M 45.83 148.77205 
L 493.2 148.77205 
" clip-path="url(#p3de947d24e)" style="fill: none; stroke: #ffffff; stroke-linecap: round"/>
     </g>
     <g id="line2d_24"/>
     <g id="text_13">
      <!-- 2.0 -->
      <g style="fill: #262626" transform="translate(24.93 152.350957) scale(0.1 -0.1)">
       <use xlink:href="#ArialMT-32"/>
       <use xlink:href="#ArialMT-2e" x="55.615234"/>
       <use xlink:href="#ArialMT-30" x="83.398438"/>
      </g>
     </g>
    </g>
    <g id="ytick_4">
     <g id="line2d_25">
      <path d="M 45.83 100.629866 
L 493.2 100.629866 
" clip-path="url(#p3de947d24e)" style="fill: none; stroke: #ffffff; stroke-linecap: round"/>
     </g>
     <g id="line2d_26"/>
     <g id="text_14">
      <!-- 2.5 -->
      <g style="fill: #262626" transform="translate(24.93 104.208772) scale(0.1 -0.1)">
       <use xlink:href="#ArialMT-32"/>
       <use xlink:href="#ArialMT-2e" x="55.615234"/>
       <use xlink:href="#ArialMT-35" x="83.398438"/>
      </g>
     </g>
    </g>
    <g id="ytick_5">
     <g id="line2d_27">
      <path d="M 45.83 52.487681 
L 493.2 52.487681 
" clip-path="url(#p3de947d24e)" style="fill: none; stroke: #ffffff; stroke-linecap: round"/>
     </g>
     <g id="line2d_28"/>
     <g id="text_15">
      <!-- 3.0 -->
      <g style="fill: #262626" transform="translate(24.93 56.066587) scale(0.1 -0.1)">
       <defs>
        <path id="ArialMT-33" d="M 269 1209 
L 831 1284 
Q 928 806 1161 595 
Q 1394 384 1728 384 
Q 2125 384 2398 659 
Q 2672 934 2672 1341 
Q 2672 1728 2419 1979 
Q 2166 2231 1775 2231 
Q 1616 2231 1378 2169 
L 1441 2663 
Q 1497 2656 1531 2656 
Q 1891 2656 2178 2843 
Q 2466 3031 2466 3422 
Q 2466 3731 2256 3934 
Q 2047 4138 1716 4138 
Q 1388 4138 1169 3931 
Q 950 3725 888 3313 
L 325 3413 
Q 428 3978 793 4289 
Q 1159 4600 1703 4600 
Q 2078 4600 2393 4439 
Q 2709 4278 2876 4000 
Q 3044 3722 3044 3409 
Q 3044 3113 2884 2869 
Q 2725 2625 2413 2481 
Q 2819 2388 3044 2092 
Q 3269 1797 3269 1353 
Q 3269 753 2831 336 
Q 2394 -81 1725 -81 
Q 1122 -81 723 278 
Q 325 638 269 1209 
z
" transform="scale(0.015625)"/>
       </defs>
       <use xlink:href="#ArialMT-33"/>
       <use xlink:href="#ArialMT-2e" x="55.615234"/>
       <use xlink:href="#ArialMT-30" x="83.398438"/>
      </g>
     </g>
    </g>
    <g id="text_16">
     <!-- v -->
     <g style="fill: #262626" transform="translate(18.74375 131.89) rotate(-90) scale(0.11 -0.11)">
      <defs>
       <path id="ArialMT-76" d="M 1344 0 
L 81 3319 
L 675 3319 
L 1388 1331 
Q 1503 1009 1600 663 
Q 1675 925 1809 1294 
L 2547 3319 
L 3125 3319 
L 1869 0 
L 1344 0 
z
" transform="scale(0.015625)"/>
      </defs>
      <use xlink:href="#ArialMT-76"/>
     </g>
    </g>
   </g>
   <g id="line2d_29">
    <path d="M 472.865 148.77205 
L 472.719893 145.506898 
L 472.281674 142.190206 
L 471.546648 138.825166 
L 470.511988 135.415271 
L 469.175736 131.964316 
L 467.536814 128.47638 
L 465.595123 124.955825 
L 463.351562 121.407406 
L 460.80804 117.836118 
L 457.967482 114.247183 
L 454.833828 110.646054 
L 451.412034 107.038407 
L 447.70807 103.43015 
L 443.728923 99.827416 
L 439.482596 96.236565 
L 433.812302 91.774479 
L 427.757515 87.353735 
L 421.340523 82.987685 
L 414.584801 78.689461 
L 407.514981 74.471952 
L 400.156851 70.347809 
L 392.537348 66.32944 
L 384.684567 62.429016 
L 376.627755 58.658463 
L 368.396883 55.029346 
L 360.019868 51.551863 
L 351.526826 48.235873 
L 342.947342 45.090439 
L 334.30971 42.12365 
L 325.640934 39.342614 
L 315.23341 36.259132 
L 304.859985 33.460655 
L 294.559968 30.953897 
L 284.369995 28.743546 
L 274.324026 26.832264 
L 264.453135 25.220974 
L 254.783313 23.908803 
L 245.336347 22.891936 
L 236.13128 22.16546 
L 227.184434 21.723479 
L 218.509414 21.559121 
L 210.117099 21.664532 
L 202.015652 22.030879 
L 194.210513 22.648352 
L 186.704403 23.506158 
L 179.497319 24.59253 
L 172.586543 25.894715 
L 165.970155 27.400936 
L 159.645625 29.099972 
L 153.606933 30.979358 
L 147.84775 33.026928 
L 142.361431 35.230823 
L 137.141021 37.579489 
L 132.179254 40.061674 
L 127.468549 42.666431 
L 123.001016 45.383118 
L 118.76845 48.201396 
L 114.762335 51.111231 
L 110.973844 54.102893 
L 106.817184 57.684096 
L 102.932745 61.350293 
L 99.307856 65.088805 
L 95.93012 68.887615 
L 92.787732 72.735394 
L 89.470247 77.179194 
L 86.429716 81.658279 
L 83.651334 86.159025 
L 81.121303 90.668977 
L 78.826825 95.17685 
L 76.512453 100.233171 
L 74.466031 105.261453 
L 72.673893 110.250935 
L 71.123491 115.19217 
L 69.668617 120.613424 
L 68.482102 125.951795 
L 67.551605 131.198063 
L 66.866156 136.344075 
L 66.416156 141.382743 
L 66.193377 146.308047 
L 66.190964 151.115031 
L 66.403432 155.799806 
L 66.826668 160.359549 
L 67.457872 164.792433 
L 68.294435 169.09607 
L 69.335167 173.268867 
L 70.579995 177.309901 
L 72.029554 181.218453 
L 73.685186 184.994013 
L 75.548946 188.636275 
L 77.406547 191.800255 
L 79.437465 194.856252 
L 81.64467 197.80447 
L 84.031597 200.645251 
L 86.602147 203.379072 
L 89.360687 206.006542 
L 92.311162 208.527877 
L 95.458399 210.943199 
L 98.808473 213.252981 
L 102.367514 215.457559 
L 106.141708 217.557133 
L 110.595193 219.766908 
L 115.330655 221.847007 
L 120.356827 223.797107 
L 125.682526 225.616677 
L 131.316657 227.304975 
L 137.268212 228.861053 
L 143.546267 230.283754 
L 150.840174 231.693034 
L 158.552553 232.937157 
L 166.692893 234.013308 
L 175.25351 234.915684 
L 184.252829 235.640988 
L 193.709357 236.185484 
L 203.63466 236.544106 
L 214.03336 236.710462 
L 224.903134 236.67683 
L 236.234718 236.434163 
L 248.011902 235.972085 
L 260.211535 235.278891 
L 272.803521 234.341551 
L 285.75082 233.145706 
L 297.792545 231.821076 
L 310.053627 230.257118 
L 322.491298 228.440188 
L 333.797019 226.576651 
L 345.168589 224.485238 
L 356.549145 222.154636 
L 366.622758 219.87225 
L 376.608637 217.382279 
L 386.456365 214.675788 
L 394.916813 212.122925 
L 403.190095 209.391341 
L 404.354292 208.986171 
L 404.354292 208.986171 
" clip-path="url(#p3de947d24e)" style="fill: none; stroke: #4c72b0; stroke-width: 1.75; stroke-linecap: round"/>
   </g>
   <g id="line2d_30">
    <path d="M 472.865 148.77205 
L 470.945706 145.293431 
L 468.73476 141.813435 
L 466.241114 138.337962 
L 463.474468 134.872902 
L 460.445271 131.424131 
L 457.164636 127.997494 
L 453.644051 124.598703 
L 448.924993 120.398094 
L 443.875512 116.260741 
L 438.520781 112.196927 
L 432.886222 108.21642 
L 426.997508 104.32847 
L 420.88056 100.541812 
L 414.56151 96.864661 
L 408.065354 93.304496 
L 400.071139 89.196094 
L 391.899444 85.276063 
L 383.589836 81.553316 
L 375.179614 78.035366 
L 366.70381 74.728327 
L 358.195185 71.63691 
L 349.684236 68.764428 
L 341.1992 66.112836 
L 332.765854 63.68332 
L 324.40686 61.475412 
L 314.775871 59.177651 
L 305.302925 57.176082 
L 296.013374 55.465992 
L 286.928858 54.041411 
L 278.067307 52.895107 
L 269.442939 52.018591 
L 261.066278 51.402122 
L 252.946639 51.036005 
L 245.090596 50.910014 
L 237.501757 51.013123 
L 230.182501 51.334315 
L 223.133978 51.862583 
L 216.356109 52.586929 
L 209.847584 53.496365 
L 203.605866 54.579911 
L 197.627187 55.826598 
L 191.906548 57.225465 
L 186.438498 58.765797 
L 180.492853 60.686687 
L 174.862019 62.764532 
L 169.536513 64.985012 
L 164.506925 67.334436 
L 159.763924 69.799737 
L 155.298251 72.368477 
L 151.100724 75.028845 
L 147.162238 77.769657 
L 143.473761 80.580356 
L 139.611915 83.813591 
L 136.04255 87.109517 
L 132.754021 90.455528 
L 129.7352 93.840067 
L 126.975387 97.252408 
L 124.464496 100.68249 
L 121.955066 104.50309 
L 119.729174 108.322079 
L 117.77566 112.128542 
L 116.084305 115.912577 
L 114.645827 119.665295 
L 113.451883 123.378822 
L 112.495071 127.046295 
L 111.768909 130.66185 
L 111.26668 134.219153 
L 110.982598 137.712307 
L 110.91202 141.136436 
L 111.050773 144.487032 
L 111.395149 147.759954 
L 111.941914 150.951427 
L 112.688297 154.058043 
L 113.632 157.076763 
L 114.771191 160.004912 
L 116.104508 162.840182 
L 117.631057 165.580635 
L 119.349703 168.224415 
L 121.259177 170.769312 
L 123.359947 173.213534 
L 125.652289 175.555351 
L 128.136229 177.793073 
L 130.81154 179.925056 
L 133.974839 182.146195 
L 137.368128 184.235375 
L 140.990051 186.190583 
L 144.838886 188.009869 
L 148.912541 189.691345 
L 153.208557 191.233187 
L 158.145388 192.753872 
L 163.336443 194.104013 
L 168.773003 195.280377 
L 174.447889 196.279261 
L 180.350562 197.097072 
L 186.467095 197.73033 
L 193.314505 198.204194 
L 200.366008 198.453381 
L 207.590424 198.473915 
L 214.951898 198.261972 
L 222.40991 197.813886 
L 229.919264 197.126144 
L 236.853501 196.275686 
L 243.748108 195.216153 
L 250.560297 193.947283 
L 257.234195 192.467945 
L 263.182949 190.927372 
L 268.927067 189.212095 
L 274.4259 187.325209 
L 279.178654 185.46464 
L 283.666975 183.470169 
L 287.862601 181.346985 
L 291.365635 179.331094 
L 294.589695 177.22095 
L 297.515682 175.022229 
L 299.851256 172.998503 
L 301.679565 171.178151 
L 301.679565 171.178151 
" clip-path="url(#p3de947d24e)" style="fill: none; stroke-dasharray: 6.475,2.8; stroke-dashoffset: 0; stroke: #55a868; stroke-width: 1.75"/>
   </g>
   <g id="line2d_31">
    <defs>
     <path id="m9d44f9775c" d="M 0 3.5 
C 0.928211 3.5 1.81853 3.131218 2.474874 2.474874 
C 3.131218 1.81853 3.5 0.928211 3.5 0 
C 3.5 -0.928211 3.131218 -1.81853 2.474874 -2.474874 
C 1.81853 -3.131218 0.928211 -3.5 0 -3.5 
C -0.928211 -3.5 -1.81853 -3.131218 -2.474874 -2.474874 
C -3.131218 -1.81853 -3.5 -0.928211 -3.5 0 
C -3.5 0.928211 -3.131218 1.81853 -2.474874 2.474874 
C -1.81853 3.131218 -0.928211 3.5 0 3.5 
z
"/>
    </defs>
    <g clip-path="url(#p3de947d24e)">
     <use xlink:href="#m9d44f9775c" x="472.865" y="148.77205" style="fill: #55a868"/>
     <use xlink:href="#m9d44f9775c" x="451.806639" y="107.432934" style="fill: #55a868"/>
     <use xlink:href="#m9d44f9775c" x="392.366931" y="66.230249" style="fill: #55a868"/>
     <use xlink:href="#m9d44f9775c" x="312.311213" y="35.426442" style="fill: #55a868"/>
     <use xlink:href="#m9d44f9775c" x="234.19687" y="22.021144" style="fill: #55a868"/>
     <use xlink:href="#m9d44f9775c" x="171.60758" y="26.072631" style="fill: #55a868"/>
     <use xlink:href="#m9d44f9775c" x="127.127573" y="42.842161" style="fill: #55a868"/>
     <use xlink:href="#m9d44f9775c" x="97.817082" y="66.702008" style="fill: #55a868"/>
     <use xlink:href="#m9d44f9775c" x="79.773788" y="93.239758" style="fill: #55a868"/>
     <use xlink:href="#m9d44f9775c" x="69.918041" y="119.612982" style="fill: #55a868"/>
     <use xlink:href="#m9d44f9775c" x="66.261093" y="144.209794" style="fill: #55a868"/>
     <use xlink:href="#m9d44f9775c" x="67.710845" y="166.221278" style="fill: #55a868"/>
     <use xlink:href="#m9d44f9775c" x="73.838284" y="185.310827" style="fill: #55a868"/>
     <use xlink:href="#m9d44f9775c" x="84.707496" y="201.392975" style="fill: #55a868"/>
     <use xlink:href="#m9d44f9775c" x="100.764945" y="214.491173" style="fill: #55a868"/>
     <use xlink:href="#m9d44f9775c" x="122.755374" y="224.643043" style="fill: #55a868"/>
     <use xlink:href="#m9d44f9775c" x="151.620308" y="231.828725" style="fill: #55a868"/>
     <use xlink:href="#m9d44f9775c" x="188.318262" y="235.903592" style="fill: #55a868"/>
     <use xlink:href="#m9d44f9775c" x="233.475744" y="236.519982" style="fill: #55a868"/>
     <use xlink:href="#m9d44f9775c" x="286.73917" y="233.027192" style="fill: #55a868"/>
     <use xlink:href="#m9d44f9775c" x="345.686254" y="224.356775" style="fill: #55a868"/>
     <use xlink:href="#m9d44f9775c" x="404.302142" y="208.962788" style="fill: #55a868"/>
    </g>
   </g>
   <g id="line2d_32">
    <path d="M 472.865 148.77205 
L 471.65265 145.353356 
L 470.135406 141.910308 
L 468.317001 138.448118 
L 466.202183 134.972172 
L 463.796717 131.488024 
L 461.107299 128.001362 
L 458.141462 124.517946 
L 454.908065 121.043786 
L 451.416618 117.584873 
L 447.677203 114.147148 
L 442.670526 109.888754 
L 437.315181 105.684057 
L 431.634657 101.544326 
L 425.653846 97.480706 
L 419.398109 93.503938 
L 412.893136 89.624149 
L 406.165848 85.851182 
L 399.242648 82.194187 
L 392.149399 78.661614 
L 383.448654 74.597627 
L 374.582208 70.735998 
L 365.591674 67.087343 
L 356.517545 63.66083 
L 347.397891 60.46421 
L 338.26755 57.503177 
L 329.159529 54.781767 
L 320.104189 52.302803 
L 311.129245 50.067892 
L 302.259761 48.077429 
L 293.518157 46.330591 
L 284.924205 44.825342 
L 276.495029 43.558433 
L 268.245104 42.525398 
L 260.18639 41.720648 
L 252.330286 41.138969 
L 244.684924 40.773862 
L 237.256442 40.618113 
L 230.049795 40.664316 
L 223.068754 40.904869 
L 216.315903 41.33197 
L 209.792646 41.937625 
L 203.499198 42.713641 
L 196.44594 43.82311 
L 189.700542 45.139376 
L 183.257531 46.648533 
L 177.112841 48.337834 
L 171.259925 50.194307 
L 165.691267 52.205117 
L 160.399262 54.35788 
L 155.376218 56.640666 
L 150.614356 59.041997 
L 146.105807 61.550848 
L 141.842616 64.156647 
L 137.816741 66.849273 
L 133.495898 70.020499 
L 129.462117 73.278814 
L 125.703139 76.611267 
L 122.208202 80.00568 
L 118.96639 83.450928 
L 115.967068 86.936539 
L 112.870151 90.893832 
L 110.053876 94.876582 
L 107.505616 98.872592 
L 105.213634 102.870626 
L 103.167077 106.8604 
L 101.168886 111.272484 
L 99.449034 115.651474 
L 97.996497 119.987421 
L 96.801604 124.271834 
L 95.856037 128.49768 
L 95.152034 132.65844 
L 94.680906 136.745967 
L 94.436592 140.754519 
L 94.413908 144.679019 
L 94.608382 148.514873 
L 95.016253 152.257972 
L 95.634475 155.904691 
L 96.460715 159.451891 
L 97.493353 162.896915 
L 98.73148 166.237594 
L 100.174895 169.472236 
L 101.822997 172.598946 
L 103.676424 175.615954 
L 105.736885 178.521889 
L 108.006169 181.315418 
L 110.486146 183.995244 
L 113.178765 186.56011 
L 116.086054 189.008795 
L 119.210122 191.340115 
L 122.553156 193.552923 
L 126.117424 195.646109 
L 129.905274 197.618603 
L 133.919133 199.469369 
L 138.161506 201.19741 
L 143.093706 202.955203 
L 148.302073 204.560803 
L 153.791035 206.011844 
L 159.563414 207.30575 
L 165.619365 208.439656 
L 171.956375 209.410411 
L 179.183865 210.279294 
L 186.729274 210.945061 
L 194.578479 211.40245 
L 202.713576 211.645792 
L 211.112882 211.669013 
L 219.750939 211.465628 
L 228.598506 211.028749 
L 237.623045 210.3515 
L 246.785886 209.428446 
L 255.258021 208.35754 
L 263.749893 207.063795 
L 272.210079 205.540885 
L 279.828029 203.953273 
L 287.332107 202.16916 
L 294.677503 200.186498 
L 301.114074 198.231343 
L 307.348804 196.114115 
L 313.344955 193.835106 
L 318.44387 191.674181 
L 323.296695 189.387067 
L 327.875069 186.975089 
L 331.633105 184.76349 
L 335.138658 182.458912 
L 338.371214 180.062906 
L 338.371214 180.062906 
" clip-path="url(#p3de947d24e)" style="fill: none; stroke-dasharray: 11.2,2.8,1.75,2.8; stroke-dashoffset: 0; stroke: #c44e52; stroke-width: 1.75"/>
   </g>
   <g id="line2d_33">
    <defs>
     <path id="m390f089e05" d="M 0 -5 
L -1.12257 -1.545085 
L -4.755283 -1.545085 
L -1.816356 0.59017 
L -2.938926 4.045085 
L -0 1.90983 
L 2.938926 4.045085 
L 1.816356 0.59017 
L 4.755283 -1.545085 
L 1.12257 -1.545085 
z
"/>
    </defs>
    <g clip-path="url(#p3de947d24e)">
     <use xlink:href="#m390f089e05" x="472.865" y="148.77205" style="fill: #c44e52"/>
     <use xlink:href="#m390f089e05" x="465.308905" y="124.476217" style="fill: #c44e52"/>
     <use xlink:href="#m390f089e05" x="442.604506" y="98.852078" style="fill: #c44e52"/>
     <use xlink:href="#m390f089e05" x="406.609247" y="73.948922" style="fill: #c44e52"/>
     <use xlink:href="#m390f089e05" x="361.423007" y="52.117895" style="fill: #c44e52"/>
     <use xlink:href="#m390f089e05" x="312.269925" y="35.430054" style="fill: #c44e52"/>
     <use xlink:href="#m390f089e05" x="264.038181" y="25.157024" style="fill: #c44e52"/>
     <use xlink:href="#m390f089e05" x="220.226515" y="21.568625" style="fill: #c44e52"/>
     <use xlink:href="#m390f089e05" x="182.653396" y="24.082037" style="fill: #c44e52"/>
     <use xlink:href="#m390f089e05" x="151.761452" y="31.601017" style="fill: #c44e52"/>
     <use xlink:href="#m390f089e05" x="127.14041" y="42.855062" style="fill: #c44e52"/>
     <use xlink:href="#m390f089e05" x="107.991153" y="56.6352" style="fill: #c44e52"/>
     <use xlink:href="#m390f089e05" x="93.431092" y="71.913721" style="fill: #c44e52"/>
     <use xlink:href="#m390f089e05" x="82.653771" y="87.879275" style="fill: #c44e52"/>
     <use xlink:href="#m390f089e05" x="74.991585" y="103.924711" style="fill: #c44e52"/>
     <use xlink:href="#m390f089e05" x="69.926078" y="119.614972" style="fill: #c44e52"/>
     <use xlink:href="#m390f089e05" x="67.075073" y="134.650761" style="fill: #c44e52"/>
     <use xlink:href="#m390f089e05" x="66.172614" y="148.835274" style="fill: #c44e52"/>
     <use xlink:href="#m390f089e05" x="67.049181" y="162.046547" style="fill: #c44e52"/>
     <use xlink:href="#m390f089e05" x="69.615001" y="174.215595" style="fill: #c44e52"/>
     <use xlink:href="#m390f089e05" x="73.846965" y="185.309574" style="fill: #c44e52"/>
     <use xlink:href="#m390f089e05" x="79.778722" y="195.318945" style="fill: #c44e52"/>
     <use xlink:href="#m390f089e05" x="87.493092" y="204.247644" style="fill: #c44e52"/>
     <use xlink:href="#m390f089e05" x="97.115774" y="212.105412" style="fill: #c44e52"/>
     <use xlink:href="#m390f089e05" x="108.809224" y="218.901564" style="fill: #c44e52"/>
     <use xlink:href="#m390f089e05" x="122.765372" y="224.639604" style="fill: #c44e52"/>
     <use xlink:href="#m390f089e05" x="139.195535" y="229.312184" style="fill: #c44e52"/>
     <use xlink:href="#m390f089e05" x="158.315464" y="232.895946" style="fill: #c44e52"/>
     <use xlink:href="#m390f089e05" x="180.322824" y="235.345828" style="fill: #c44e52"/>
     <use xlink:href="#m390f089e05" x="205.363662" y="236.588462" style="fill: #c44e52"/>
     <use xlink:href="#m390f089e05" x="233.483692" y="236.514393" style="fill: #c44e52"/>
     <use xlink:href="#m390f089e05" x="264.559814" y="234.969118" style="fill: #c44e52"/>
     <use xlink:href="#m390f089e05" x="298.207996" y="231.74358" style="fill: #c44e52"/>
     <use xlink:href="#m390f089e05" x="333.666947" y="226.566064" style="fill: #c44e52"/>
     <use xlink:href="#m390f089e05" x="369.665477" y="219.100007" style="fill: #c44e52"/>
     <use xlink:href="#m390f089e05" x="404.298659" y="208.956517" style="fill: #c44e52"/>
    </g>
   </g>
   <g id="patch_3">
    <path d="M 45.83 247.48 
L 45.83 10.8 
" style="fill: none"/>
   </g>
   <g id="patch_4">
    <path d="M 493.2 247.48 
L 493.2 10.8 
" style="fill: none"/>
   </g>
   <g id="patch_5">
    <path d="M 45.83 247.48 
L 493.2 247.48 
" style="fill: none"/>
   </g>
   <g id="patch_6">
    <path d="M 45.83 10.8 
L 493.2 10.8 
" style="fill: none"/>
   </g>
   <g id="legend_1">
    <g id="line2d_34">
     <path d="M 410.8 23.457812 
L 420.8 23.457812 
L 430.8 23.457812 
" style="fill: none; stroke: #4c72b0; stroke-width: 1.75; stroke-linecap: round"/>
    </g>
    <g id="text_17">
     <!-- exact -->
     <g style="fill: #262626" transform="translate(438.8 26.957812) scale(0.1 -0.1)">
      <defs>
       <path id="ArialMT-65" d="M 2694 1069 
L 3275 997 
Q 3138 488 2766 206 
Q 2394 -75 1816 -75 
Q 1088 -75 661 373 
Q 234 822 234 1631 
Q 234 2469 665 2931 
Q 1097 3394 1784 3394 
Q 2450 3394 2872 2941 
Q 3294 2488 3294 1666 
Q 3294 1616 3291 1516 
L 816 1516 
Q 847 969 1125 678 
Q 1403 388 1819 388 
Q 2128 388 2347 550 
Q 2566 713 2694 1069 
z
M 847 1978 
L 2700 1978 
Q 2663 2397 2488 2606 
Q 2219 2931 1791 2931 
Q 1403 2931 1139 2672 
Q 875 2413 847 1978 
z
" transform="scale(0.015625)"/>
       <path id="ArialMT-78" d="M 47 0 
L 1259 1725 
L 138 3319 
L 841 3319 
L 1350 2541 
Q 1494 2319 1581 2169 
Q 1719 2375 1834 2534 
L 2394 3319 
L 3066 3319 
L 1919 1756 
L 3153 0 
L 2463 0 
L 1781 1031 
L 1600 1309 
L 728 0 
L 47 0 
z
" transform="scale(0.015625)"/>
       <path id="ArialMT-61" d="M 2588 409 
Q 2275 144 1986 34 
Q 1697 -75 1366 -75 
Q 819 -75 525 192 
Q 231 459 231 875 
Q 231 1119 342 1320 
Q 453 1522 633 1644 
Q 813 1766 1038 1828 
Q 1203 1872 1538 1913 
Q 2219 1994 2541 2106 
Q 2544 2222 2544 2253 
Q 2544 2597 2384 2738 
Q 2169 2928 1744 2928 
Q 1347 2928 1158 2789 
Q 969 2650 878 2297 
L 328 2372 
Q 403 2725 575 2942 
Q 747 3159 1072 3276 
Q 1397 3394 1825 3394 
Q 2250 3394 2515 3294 
Q 2781 3194 2906 3042 
Q 3031 2891 3081 2659 
Q 3109 2516 3109 2141 
L 3109 1391 
Q 3109 606 3145 398 
Q 3181 191 3288 0 
L 2700 0 
Q 2613 175 2588 409 
z
M 2541 1666 
Q 2234 1541 1622 1453 
Q 1275 1403 1131 1340 
Q 988 1278 909 1158 
Q 831 1038 831 891 
Q 831 666 1001 516 
Q 1172 366 1500 366 
Q 1825 366 2078 508 
Q 2331 650 2450 897 
Q 2541 1088 2541 1459 
L 2541 1666 
z
" transform="scale(0.015625)"/>
       <path id="ArialMT-63" d="M 2588 1216 
L 3141 1144 
Q 3050 572 2676 248 
Q 2303 -75 1759 -75 
Q 1078 -75 664 370 
Q 250 816 250 1647 
Q 250 2184 428 2587 
Q 606 2991 970 3192 
Q 1334 3394 1763 3394 
Q 2303 3394 2647 3120 
Q 2991 2847 3088 2344 
L 2541 2259 
Q 2463 2594 2264 2762 
Q 2066 2931 1784 2931 
Q 1359 2931 1093 2626 
Q 828 2322 828 1663 
Q 828 994 1084 691 
Q 1341 388 1753 388 
Q 2084 388 2306 591 
Q 2528 794 2588 1216 
z
" transform="scale(0.015625)"/>
       <path id="ArialMT-74" d="M 1650 503 
L 1731 6 
Q 1494 -44 1306 -44 
Q 1000 -44 831 53 
Q 663 150 594 308 
Q 525 466 525 972 
L 525 2881 
L 113 2881 
L 113 3319 
L 525 3319 
L 525 4141 
L 1084 4478 
L 1084 3319 
L 1650 3319 
L 1650 2881 
L 1084 2881 
L 1084 941 
Q 1084 700 1114 631 
Q 1144 563 1211 522 
Q 1278 481 1403 481 
Q 1497 481 1650 503 
z
" transform="scale(0.015625)"/>
      </defs>
      <use xlink:href="#ArialMT-65"/>
      <use xlink:href="#ArialMT-78" x="55.615234"/>
      <use xlink:href="#ArialMT-61" x="105.615234"/>
      <use xlink:href="#ArialMT-63" x="161.230469"/>
      <use xlink:href="#ArialMT-74" x="211.230469"/>
     </g>
    </g>
    <g id="line2d_35">
     <path d="M 410.8 37.603125 
L 420.8 37.603125 
L 430.8 37.603125 
" style="fill: none; stroke-dasharray: 6.475,2.8; stroke-dashoffset: 0; stroke: #55a868; stroke-width: 1.75"/>
     <g>
      <use xlink:href="#m9d44f9775c" x="420.8" y="37.603125" style="fill: #55a868"/>
     </g>
    </g>
    <g id="text_18">
     <!-- $\Delta t = 0.2$ -->
     <g style="fill: #262626" transform="translate(438.8 41.103125) scale(0.1 -0.1)">
      <defs>
       <path id="DejaVuSans-394" d="M 2188 4044 
L 906 525 
L 3472 525 
L 2188 4044 
z
M 50 0 
L 1831 4666 
L 2547 4666 
L 4325 0 
L 50 0 
z
" transform="scale(0.015625)"/>
       <path id="DejaVuSans-Oblique-74" d="M 2706 3500 
L 2619 3053 
L 1472 3053 
L 1100 1153 
Q 1081 1047 1072 975 
Q 1063 903 1063 863 
Q 1063 663 1183 572 
Q 1303 481 1569 481 
L 2150 481 
L 2053 0 
L 1503 0 
Q 991 0 739 200 
Q 488 400 488 806 
Q 488 878 497 964 
Q 506 1050 525 1153 
L 897 3053 
L 409 3053 
L 500 3500 
L 978 3500 
L 1172 4494 
L 1747 4494 
L 1556 3500 
L 2706 3500 
z
" transform="scale(0.015625)"/>
       <path id="DejaVuSans-3d" d="M 678 2906 
L 4684 2906 
L 4684 2381 
L 678 2381 
L 678 2906 
z
M 678 1631 
L 4684 1631 
L 4684 1100 
L 678 1100 
L 678 1631 
z
" transform="scale(0.015625)"/>
       <path id="DejaVuSans-30" d="M 2034 4250 
Q 1547 4250 1301 3770 
Q 1056 3291 1056 2328 
Q 1056 1369 1301 889 
Q 1547 409 2034 409 
Q 2525 409 2770 889 
Q 3016 1369 3016 2328 
Q 3016 3291 2770 3770 
Q 2525 4250 2034 4250 
z
M 2034 4750 
Q 2819 4750 3233 4129 
Q 3647 3509 3647 2328 
Q 3647 1150 3233 529 
Q 2819 -91 2034 -91 
Q 1250 -91 836 529 
Q 422 1150 422 2328 
Q 422 3509 836 4129 
Q 1250 4750 2034 4750 
z
" transform="scale(0.015625)"/>
       <path id="DejaVuSans-2e" d="M 684 794 
L 1344 794 
L 1344 0 
L 684 0 
L 684 794 
z
" transform="scale(0.015625)"/>
       <path id="DejaVuSans-32" d="M 1228 531 
L 3431 531 
L 3431 0 
L 469 0 
L 469 531 
Q 828 903 1448 1529 
Q 2069 2156 2228 2338 
Q 2531 2678 2651 2914 
Q 2772 3150 2772 3378 
Q 2772 3750 2511 3984 
Q 2250 4219 1831 4219 
Q 1534 4219 1204 4116 
Q 875 4013 500 3803 
L 500 4441 
Q 881 4594 1212 4672 
Q 1544 4750 1819 4750 
Q 2544 4750 2975 4387 
Q 3406 4025 3406 3419 
Q 3406 3131 3298 2873 
Q 3191 2616 2906 2266 
Q 2828 2175 2409 1742 
Q 1991 1309 1228 531 
z
" transform="scale(0.015625)"/>
      </defs>
      <use xlink:href="#DejaVuSans-394" transform="translate(0 0.78125)"/>
      <use xlink:href="#DejaVuSans-Oblique-74" transform="translate(68.408203 0.78125)"/>
      <use xlink:href="#DejaVuSans-3d" transform="translate(127.099609 0.78125)"/>
      <use xlink:href="#DejaVuSans-30" transform="translate(230.371094 0.78125)"/>
      <use xlink:href="#DejaVuSans-2e" transform="translate(293.994141 0.78125)"/>
      <use xlink:href="#DejaVuSans-32" transform="translate(320.28125 0.78125)"/>
     </g>
    </g>
    <g id="line2d_36">
     <path d="M 410.8 51.748437 
L 420.8 51.748437 
L 430.8 51.748437 
" style="fill: none; stroke-dasharray: 11.2,2.8,1.75,2.8; stroke-dashoffset: 0; stroke: #c44e52; stroke-width: 1.75"/>
     <g>
      <use xlink:href="#m390f089e05" x="420.8" y="51.748437" style="fill: #c44e52"/>
     </g>
    </g>
    <g id="text_19">
     <!-- $\Delta t = 0.12$ -->
     <g style="fill: #262626" transform="translate(438.8 55.248437) scale(0.1 -0.1)">
      <defs>
       <path id="DejaVuSans-31" d="M 794 531 
L 1825 531 
L 1825 4091 
L 703 3866 
L 703 4441 
L 1819 4666 
L 2450 4666 
L 2450 531 
L 3481 531 
L 3481 0 
L 794 0 
L 794 531 
z
" transform="scale(0.015625)"/>
      </defs>
      <use xlink:href="#DejaVuSans-394" transform="translate(0 0.78125)"/>
      <use xlink:href="#DejaVuSans-Oblique-74" transform="translate(68.408203 0.78125)"/>
      <use xlink:href="#DejaVuSans-3d" transform="translate(127.099609 0.78125)"/>
      <use xlink:href="#DejaVuSans-30" transform="translate(230.371094 0.78125)"/>
      <use xlink:href="#DejaVuSans-2e" transform="translate(293.994141 0.78125)"/>
      <use xlink:href="#DejaVuSans-31" transform="translate(325.78125 0.78125)"/>
      <use xlink:href="#DejaVuSans-32" transform="translate(389.404297 0.78125)"/>
     </g>
    </g>
   </g>
  </g>
 </g>
 <defs>
  <clipPath id="p3de947d24e">
   <rect x="45.83" y="10.8" width="447.37" height="236.68"/>
  </clipPath>
 </defs>
</svg>
