<?xml version="1.0" encoding="utf-8" standalone="no"?>
<!DOCTYPE svg PUBLIC "-//W3C//DTD SVG 1.1//EN"
  "http://www.w3.org/Graphics/SVG/1.1/DTD/svg11.dtd">
<svg xmlns:xlink="http://www.w3.org/1999/xlink" width="1008pt" height="576pt" viewBox="0 0 504 270" xmlns="http://www.w3.org/2000/svg" version="1.1">
 <metadata>
  <rdf:RDF xmlns:dc="http://purl.org/dc/elements/1.1/" xmlns:cc="http://creativecommons.org/ns#" xmlns:rdf="http://www.w3.org/1999/02/22-rdf-syntax-ns#">
   <cc:Work>
    <dc:type rdf:resource="http://purl.org/dc/dcmitype/StillImage"/>
    <dc:date>2024-02-28T21:46:34.987519</dc:date>
    <dc:format>image/svg+xml</dc:format>
    <dc:creator>
     <cc:Agent>
      <dc:title>Matplotlib v3.8.2, https://matplotlib.org/</dc:title>
     </cc:Agent>
    </dc:creator>
   </cc:Work>
  </rdf:RDF>
 </metadata>
 <defs>
  <style type="text/css">*{stroke-linejoin: round; stroke-linecap: butt}</style>
 </defs>
 <g id="figure_1">
  <g id="patch_1">
   <path d="M 0 288 
L 504 288 
L 504 0 
L 0 0 
z
" style="fill: #ffffff"/>
  </g>
  <g id="axes_1">
   <g id="patch_2">
    <path d="M 45.83 247.48 
L 493.2 247.48 
L 493.2 10.8 
L 45.83 10.8 
z
" style="fill: #eaeaf2"/>
   </g>
   <g id="matplotlib.axis_1">
    <g id="xtick_1">
     <g id="line2d_1">
      <path d="M 79.365897 247.48 
L 79.365897 10.8 
" clip-path="url(#p1f96330fc8)" style="fill: none; stroke: #ffffff; stroke-linecap: round"/>
     </g>
     <g id="line2d_2"/>
     <g id="text_1">
      <!-- 0.25 -->
      <g style="fill: #262626" transform="translate(69.635428 261.637812) scale(0.1 -0.1)">
       <defs>
        <path id="ArialMT-30" d="M 266 2259 
Q 266 3072 433 3567 
Q 600 4063 929 4331 
Q 1259 4600 1759 4600 
Q 2128 4600 2406 4451 
Q 2684 4303 2865 4023 
Q 3047 3744 3150 3342 
Q 3253 2941 3253 2259 
Q 3253 1453 3087 958 
Q 2922 463 2592 192 
Q 2263 -78 1759 -78 
Q 1097 -78 719 397 
Q 266 969 266 2259 
z
M 844 2259 
Q 844 1131 1108 757 
Q 1372 384 1759 384 
Q 2147 384 2411 759 
Q 2675 1134 2675 2259 
Q 2675 3391 2411 3762 
Q 2147 4134 1753 4134 
Q 1366 4134 1134 3806 
Q 844 3388 844 2259 
z
" transform="scale(0.015625)"/>
        <path id="ArialMT-2e" d="M 581 0 
L 581 641 
L 1222 641 
L 1222 0 
L 581 0 
z
" transform="scale(0.015625)"/>
        <path id="ArialMT-32" d="M 3222 541 
L 3222 0 
L 194 0 
Q 188 203 259 391 
Q 375 700 629 1000 
Q 884 1300 1366 1694 
Q 2113 2306 2375 2664 
Q 2638 3022 2638 3341 
Q 2638 3675 2398 3904 
Q 2159 4134 1775 4134 
Q 1369 4134 1125 3890 
Q 881 3647 878 3216 
L 300 3275 
Q 359 3922 746 4261 
Q 1134 4600 1788 4600 
Q 2447 4600 2831 4234 
Q 3216 3869 3216 3328 
Q 3216 3053 3103 2787 
Q 2991 2522 2730 2228 
Q 2469 1934 1863 1422 
Q 1356 997 1212 845 
Q 1069 694 975 541 
L 3222 541 
z
" transform="scale(0.015625)"/>
        <path id="ArialMT-35" d="M 266 1200 
L 856 1250 
Q 922 819 1161 601 
Q 1400 384 1738 384 
Q 2144 384 2425 690 
Q 2706 997 2706 1503 
Q 2706 1984 2436 2262 
Q 2166 2541 1728 2541 
Q 1456 2541 1237 2417 
Q 1019 2294 894 2097 
L 366 2166 
L 809 4519 
L 3088 4519 
L 3088 3981 
L 1259 3981 
L 1013 2750 
Q 1425 3038 1878 3038 
Q 2478 3038 2890 2622 
Q 3303 2206 3303 1553 
Q 3303 931 2941 478 
Q 2500 -78 1738 -78 
Q 1113 -78 717 272 
Q 322 622 266 1200 
z
" transform="scale(0.015625)"/>
       </defs>
       <use xlink:href="#ArialMT-30"/>
       <use xlink:href="#ArialMT-2e" x="55.615234"/>
       <use xlink:href="#ArialMT-32" x="83.398438"/>
       <use xlink:href="#ArialMT-35" x="139.013672"/>
      </g>
     </g>
    </g>
    <g id="xtick_2">
     <g id="line2d_3">
      <path d="M 135.024921 247.48 
L 135.024921 10.8 
" clip-path="url(#p1f96330fc8)" style="fill: none; stroke: #ffffff; stroke-linecap: round"/>
     </g>
     <g id="line2d_4"/>
     <g id="text_2">
      <!-- 0.50 -->
      <g style="fill: #262626" transform="translate(125.294452 261.637812) scale(0.1 -0.1)">
       <use xlink:href="#ArialMT-30"/>
       <use xlink:href="#ArialMT-2e" x="55.615234"/>
       <use xlink:href="#ArialMT-35" x="83.398438"/>
       <use xlink:href="#ArialMT-30" x="139.013672"/>
      </g>
     </g>
    </g>
    <g id="xtick_3">
     <g id="line2d_5">
      <path d="M 190.683945 247.48 
L 190.683945 10.8 
" clip-path="url(#p1f96330fc8)" style="fill: none; stroke: #ffffff; stroke-linecap: round"/>
     </g>
     <g id="line2d_6"/>
     <g id="text_3">
      <!-- 0.75 -->
      <g style="fill: #262626" transform="translate(180.953477 261.637812) scale(0.1 -0.1)">
       <defs>
        <path id="ArialMT-37" d="M 303 3981 
L 303 4522 
L 3269 4522 
L 3269 4084 
Q 2831 3619 2401 2847 
Q 1972 2075 1738 1259 
Q 1569 684 1522 0 
L 944 0 
Q 953 541 1156 1306 
Q 1359 2072 1739 2783 
Q 2119 3494 2547 3981 
L 303 3981 
z
" transform="scale(0.015625)"/>
       </defs>
       <use xlink:href="#ArialMT-30"/>
       <use xlink:href="#ArialMT-2e" x="55.615234"/>
       <use xlink:href="#ArialMT-37" x="83.398438"/>
       <use xlink:href="#ArialMT-35" x="139.013672"/>
      </g>
     </g>
    </g>
    <g id="xtick_4">
     <g id="line2d_7">
      <path d="M 246.342969 247.48 
L 246.342969 10.8 
" clip-path="url(#p1f96330fc8)" style="fill: none; stroke: #ffffff; stroke-linecap: round"/>
     </g>
     <g id="line2d_8"/>
     <g id="text_4">
      <!-- 1.00 -->
      <g style="fill: #262626" transform="translate(236.612501 261.637812) scale(0.1 -0.1)">
       <defs>
        <path id="ArialMT-31" d="M 2384 0 
L 1822 0 
L 1822 3584 
Q 1619 3391 1289 3197 
Q 959 3003 697 2906 
L 697 3450 
Q 1169 3672 1522 3987 
Q 1875 4303 2022 4600 
L 2384 4600 
L 2384 0 
z
" transform="scale(0.015625)"/>
       </defs>
       <use xlink:href="#ArialMT-31"/>
       <use xlink:href="#ArialMT-2e" x="55.615234"/>
       <use xlink:href="#ArialMT-30" x="83.398438"/>
       <use xlink:href="#ArialMT-30" x="139.013672"/>
      </g>
     </g>
    </g>
    <g id="xtick_5">
     <g id="line2d_9">
      <path d="M 302.001993 247.48 
L 302.001993 10.8 
" clip-path="url(#p1f96330fc8)" style="fill: none; stroke: #ffffff; stroke-linecap: round"/>
     </g>
     <g id="line2d_10"/>
     <g id="text_5">
      <!-- 1.25 -->
      <g style="fill: #262626" transform="translate(292.271525 261.637812) scale(0.1 -0.1)">
       <use xlink:href="#ArialMT-31"/>
       <use xlink:href="#ArialMT-2e" x="55.615234"/>
       <use xlink:href="#ArialMT-32" x="83.398438"/>
       <use xlink:href="#ArialMT-35" x="139.013672"/>
      </g>
     </g>
    </g>
    <g id="xtick_6">
     <g id="line2d_11">
      <path d="M 357.661018 247.48 
L 357.661018 10.8 
" clip-path="url(#p1f96330fc8)" style="fill: none; stroke: #ffffff; stroke-linecap: round"/>
     </g>
     <g id="line2d_12"/>
     <g id="text_6">
      <!-- 1.50 -->
      <g style="fill: #262626" transform="translate(347.930549 261.637812) scale(0.1 -0.1)">
       <use xlink:href="#ArialMT-31"/>
       <use xlink:href="#ArialMT-2e" x="55.615234"/>
       <use xlink:href="#ArialMT-35" x="83.398438"/>
       <use xlink:href="#ArialMT-30" x="139.013672"/>
      </g>
     </g>
    </g>
    <g id="xtick_7">
     <g id="line2d_13">
      <path d="M 413.320042 247.48 
L 413.320042 10.8 
" clip-path="url(#p1f96330fc8)" style="fill: none; stroke: #ffffff; stroke-linecap: round"/>
     </g>
     <g id="line2d_14"/>
     <g id="text_7">
      <!-- 1.75 -->
      <g style="fill: #262626" transform="translate(403.589573 261.637812) scale(0.1 -0.1)">
       <use xlink:href="#ArialMT-31"/>
       <use xlink:href="#ArialMT-2e" x="55.615234"/>
       <use xlink:href="#ArialMT-37" x="83.398438"/>
       <use xlink:href="#ArialMT-35" x="139.013672"/>
      </g>
     </g>
    </g>
    <g id="xtick_8">
     <g id="line2d_15">
      <path d="M 468.979066 247.48 
L 468.979066 10.8 
" clip-path="url(#p1f96330fc8)" style="fill: none; stroke: #ffffff; stroke-linecap: round"/>
     </g>
     <g id="line2d_16"/>
     <g id="text_8">
      <!-- 2.00 -->
      <g style="fill: #262626" transform="translate(459.248597 261.637812) scale(0.1 -0.1)">
       <use xlink:href="#ArialMT-32"/>
       <use xlink:href="#ArialMT-2e" x="55.615234"/>
       <use xlink:href="#ArialMT-30" x="83.398438"/>
       <use xlink:href="#ArialMT-30" x="139.013672"/>
      </g>
     </g>
    </g>
    <g id="text_9">
     <!-- u -->
     <g style="fill: #262626" transform="translate(266.456484 275.498906) scale(0.11 -0.11)">
      <defs>
       <path id="ArialMT-75" d="M 2597 0 
L 2597 488 
Q 2209 -75 1544 -75 
Q 1250 -75 995 37 
Q 741 150 617 320 
Q 494 491 444 738 
Q 409 903 409 1263 
L 409 3319 
L 972 3319 
L 972 1478 
Q 972 1038 1006 884 
Q 1059 663 1231 536 
Q 1403 409 1656 409 
Q 1909 409 2131 539 
Q 2353 669 2445 892 
Q 2538 1116 2538 1541 
L 2538 3319 
L 3100 3319 
L 3100 0 
L 2597 0 
z
" transform="scale(0.015625)"/>
      </defs>
      <use xlink:href="#ArialMT-75"/>
     </g>
    </g>
   </g>
   <g id="matplotlib.axis_2">
    <g id="ytick_1">
     <g id="line2d_17">
      <path d="M 45.83 237.755024 
L 493.2 237.755024 
" clip-path="url(#p1f96330fc8)" style="fill: none; stroke: #ffffff; stroke-linecap: round"/>
     </g>
     <g id="line2d_18"/>
     <g id="text_10">
      <!-- 0.5 -->
      <g style="fill: #262626" transform="translate(24.93 241.33393) scale(0.1 -0.1)">
       <use xlink:href="#ArialMT-30"/>
       <use xlink:href="#ArialMT-2e" x="55.615234"/>
       <use xlink:href="#ArialMT-35" x="83.398438"/>
      </g>
     </g>
    </g>
    <g id="ytick_2">
     <g id="line2d_19">
      <path d="M 45.83 204.924487 
L 493.2 204.924487 
" clip-path="url(#p1f96330fc8)" style="fill: none; stroke: #ffffff; stroke-linecap: round"/>
     </g>
     <g id="line2d_20"/>
     <g id="text_11">
      <!-- 1.0 -->
      <g style="fill: #262626" transform="translate(24.93 208.503394) scale(0.1 -0.1)">
       <use xlink:href="#ArialMT-31"/>
       <use xlink:href="#ArialMT-2e" x="55.615234"/>
       <use xlink:href="#ArialMT-30" x="83.398438"/>
      </g>
     </g>
    </g>
    <g id="ytick_3">
     <g id="line2d_21">
      <path d="M 45.83 172.09395 
L 493.2 172.09395 
" clip-path="url(#p1f96330fc8)" style="fill: none; stroke: #ffffff; stroke-linecap: round"/>
     </g>
     <g id="line2d_22"/>
     <g id="text_12">
      <!-- 1.5 -->
      <g style="fill: #262626" transform="translate(24.93 175.672857) scale(0.1 -0.1)">
       <use xlink:href="#ArialMT-31"/>
       <use xlink:href="#ArialMT-2e" x="55.615234"/>
       <use xlink:href="#ArialMT-35" x="83.398438"/>
      </g>
     </g>
    </g>
    <g id="ytick_4">
     <g id="line2d_23">
      <path d="M 45.83 139.263413 
L 493.2 139.263413 
" clip-path="url(#p1f96330fc8)" style="fill: none; stroke: #ffffff; stroke-linecap: round"/>
     </g>
     <g id="line2d_24"/>
     <g id="text_13">
      <!-- 2.0 -->
      <g style="fill: #262626" transform="translate(24.93 142.84232) scale(0.1 -0.1)">
       <use xlink:href="#ArialMT-32"/>
       <use xlink:href="#ArialMT-2e" x="55.615234"/>
       <use xlink:href="#ArialMT-30" x="83.398438"/>
      </g>
     </g>
    </g>
    <g id="ytick_5">
     <g id="line2d_25">
      <path d="M 45.83 106.432876 
L 493.2 106.432876 
" clip-path="url(#p1f96330fc8)" style="fill: none; stroke: #ffffff; stroke-linecap: round"/>
     </g>
     <g id="line2d_26"/>
     <g id="text_14">
      <!-- 2.5 -->
      <g style="fill: #262626" transform="translate(24.93 110.011783) scale(0.1 -0.1)">
       <use xlink:href="#ArialMT-32"/>
       <use xlink:href="#ArialMT-2e" x="55.615234"/>
       <use xlink:href="#ArialMT-35" x="83.398438"/>
      </g>
     </g>
    </g>
    <g id="ytick_6">
     <g id="line2d_27">
      <path d="M 45.83 73.602339 
L 493.2 73.602339 
" clip-path="url(#p1f96330fc8)" style="fill: none; stroke: #ffffff; stroke-linecap: round"/>
     </g>
     <g id="line2d_28"/>
     <g id="text_15">
      <!-- 3.0 -->
      <g style="fill: #262626" transform="translate(24.93 77.181246) scale(0.1 -0.1)">
       <defs>
        <path id="ArialMT-33" d="M 269 1209 
L 831 1284 
Q 928 806 1161 595 
Q 1394 384 1728 384 
Q 2125 384 2398 659 
Q 2672 934 2672 1341 
Q 2672 1728 2419 1979 
Q 2166 2231 1775 2231 
Q 1616 2231 1378 2169 
L 1441 2663 
Q 1497 2656 1531 2656 
Q 1891 2656 2178 2843 
Q 2466 3031 2466 3422 
Q 2466 3731 2256 3934 
Q 2047 4138 1716 4138 
Q 1388 4138 1169 3931 
Q 950 3725 888 3313 
L 325 3413 
Q 428 3978 793 4289 
Q 1159 4600 1703 4600 
Q 2078 4600 2393 4439 
Q 2709 4278 2876 4000 
Q 3044 3722 3044 3409 
Q 3044 3113 2884 2869 
Q 2725 2625 2413 2481 
Q 2819 2388 3044 2092 
Q 3269 1797 3269 1353 
Q 3269 753 2831 336 
Q 2394 -81 1725 -81 
Q 1122 -81 723 278 
Q 325 638 269 1209 
z
" transform="scale(0.015625)"/>
       </defs>
       <use xlink:href="#ArialMT-33"/>
       <use xlink:href="#ArialMT-2e" x="55.615234"/>
       <use xlink:href="#ArialMT-30" x="83.398438"/>
      </g>
     </g>
    </g>
    <g id="ytick_7">
     <g id="line2d_29">
      <path d="M 45.83 40.771802 
L 493.2 40.771802 
" clip-path="url(#p1f96330fc8)" style="fill: none; stroke: #ffffff; stroke-linecap: round"/>
     </g>
     <g id="line2d_30"/>
     <g id="text_16">
      <!-- 3.5 -->
      <g style="fill: #262626" transform="translate(24.93 44.350709) scale(0.1 -0.1)">
       <use xlink:href="#ArialMT-33"/>
       <use xlink:href="#ArialMT-2e" x="55.615234"/>
       <use xlink:href="#ArialMT-35" x="83.398438"/>
      </g>
     </g>
    </g>
    <g id="text_17">
     <!-- v -->
     <g style="fill: #262626" transform="translate(18.74375 131.89) rotate(-90) scale(0.11 -0.11)">
      <defs>
       <path id="ArialMT-76" d="M 1344 0 
L 81 3319 
L 675 3319 
L 1388 1331 
Q 1503 1009 1600 663 
Q 1675 925 1809 1294 
L 2547 3319 
L 3125 3319 
L 1869 0 
L 1344 0 
z
" transform="scale(0.015625)"/>
      </defs>
      <use xlink:href="#ArialMT-76"/>
     </g>
    </g>
   </g>
   <g id="line2d_31">
    <path d="M 468.979066 139.263413 
L 468.852474 137.036745 
L 468.470171 134.774928 
L 467.828934 132.480141 
L 466.926296 130.154765 
L 465.760548 127.801388 
L 464.33075 125.422792 
L 462.636817 123.021951 
L 460.679532 120.602109 
L 458.460561 118.166671 
L 455.322822 115.105883 
L 451.78718 112.033602 
L 447.862728 108.957504 
L 443.560721 105.885646 
L 438.894577 102.826462 
L 433.879237 99.788457 
L 428.532247 96.780468 
L 421.705856 93.223286 
L 414.466191 89.737791 
L 406.851254 86.339033 
L 398.901135 83.04172 
L 390.658011 79.860219 
L 382.166148 76.808559 
L 373.469726 73.899899 
L 364.612221 71.145972 
L 355.638759 68.557794 
L 345.080199 65.760533 
L 334.486062 63.214885 
L 323.916055 60.93123 
L 313.425562 58.917387 
L 303.065642 57.178614 
L 292.883035 55.717612 
L 282.919175 54.53505 
L 273.207326 53.628505 
L 263.77544 52.993097 
L 254.647073 52.622709 
L 245.841382 52.509984 
L 237.373129 52.646331 
L 229.252677 53.02192 
L 221.485994 53.625683 
L 214.074648 54.445317 
L 207.015813 55.467281 
L 200.306538 56.678657 
L 193.942648 58.067068 
L 187.915697 59.619093 
L 182.216735 61.321698 
L 176.836306 63.162233 
L 171.76445 65.12843 
L 166.990704 67.208409 
L 162.504098 69.390672 
L 158.293161 71.664104 
L 153.802825 74.360205 
L 149.638552 77.146031 
L 145.784393 80.007581 
L 142.223939 82.93199 
L 138.941212 85.907178 
L 135.921112 88.92186 
L 132.819739 92.347559 
L 130.013838 95.796267 
L 127.485879 99.255536 
L 125.219733 102.714195 
L 122.990992 106.544444 
L 121.049157 110.350033 
L 119.378191 114.121186 
L 117.96281 117.84879 
L 116.788591 121.524004 
L 115.761809 125.498213 
L 114.999336 129.392964 
L 114.489308 133.201389 
L 114.221616 136.917683 
L 114.187899 140.537108 
L 114.381551 144.055988 
L 114.797716 147.471711 
L 115.433136 150.78258 
L 116.284958 153.986459 
L 117.352213 157.08213 
L 118.635103 160.068821 
L 120.134737 162.945965 
L 121.6878 165.46618 
L 123.423806 167.895436 
L 125.345535 170.233749 
L 127.456387 172.481276 
L 130.001577 174.849057 
L 132.786694 177.107945 
L 135.818605 179.258627 
L 139.103886 181.301196 
L 142.651744 183.236149 
L 146.471935 185.063924 
L 150.574321 186.784749 
L 154.968879 188.398644 
L 160.108014 190.037077 
L 165.620103 191.547498 
L 171.518542 192.929085 
L 177.816887 194.180719 
L 185.107279 195.38836 
L 192.900734 196.439633 
L 201.213509 197.331776 
L 210.040106 198.059005 
L 219.40337 198.617265 
L 230.11529 199.024326 
L 241.493928 199.222317 
L 253.539084 199.200977 
L 266.234659 198.947669 
L 279.548664 198.447383 
L 292.423809 197.746523 
L 305.740451 196.801982 
L 319.436164 195.596238 
L 332.350802 194.234754 
L 345.457967 192.617783 
L 357.576578 190.895981 
L 368.606293 189.119603 
L 379.571351 187.130309 
L 389.318459 185.148116 
L 398.883266 182.97517 
L 407.174877 180.87644 
L 409.21025 180.3264 
L 409.21025 180.3264 
" clip-path="url(#p1f96330fc8)" style="fill: none; stroke: #4c72b0; stroke-width: 1.75; stroke-linecap: round"/>
   </g>
   <g id="line2d_32">
    <path d="M 468.979066 139.263413 
L 470.122634 137.299917 
L 471.077793 135.289052 
L 471.836994 133.230883 
L 472.392793 131.125595 
L 472.737853 128.973487 
L 472.865 126.774988 
L 472.767502 124.530708 
L 472.438241 122.241299 
L 471.870441 119.907584 
L 471.057827 117.53059 
L 469.994632 115.111551 
L 468.67559 112.651903 
L 467.095941 110.153287 
L 465.251427 107.617549 
L 463.138297 105.04674 
L 460.753301 102.443113 
L 457.385613 99.146197 
L 453.585148 95.80713 
L 449.350884 92.431949 
L 444.683301 89.027399 
L 439.585195 85.600758 
L 434.061723 82.159841 
L 428.120403 78.712992 
L 421.771111 75.269089 
L 415.026085 71.837545 
L 407.899922 68.428304 
L 398.869468 64.381442 
L 389.34831 60.400844 
L 379.373048 56.505535 
L 368.988839 52.716368 
L 358.244473 49.054424 
L 347.190704 45.54039 
L 335.880257 42.194561 
L 324.367821 39.036835 
L 312.710052 36.086719 
L 300.965574 33.363325 
L 289.194976 30.88537 
L 277.460817 28.67118 
L 265.820557 26.736247 
L 256.231062 25.345997 
L 246.77879 24.165492 
L 237.495008 23.200506 
L 228.408082 22.45539 
L 219.54347 21.933066 
L 210.923732 21.63503 
L 202.56852 21.561349 
L 194.494586 21.710666 
L 186.715776 22.080193 
L 179.243035 22.665719 
L 172.084402 23.461602 
L 165.245014 24.460777 
L 158.728339 25.65549 
L 152.536928 27.03857 
L 146.664849 28.599182 
L 141.104898 30.326242 
L 135.84929 32.208784 
L 130.889663 34.235963 
L 126.217078 36.397052 
L 121.822016 38.681442 
L 117.694382 41.078647 
L 113.823501 43.578298 
L 110.198121 46.170145 
L 106.806413 48.844057 
L 103.635967 51.590026 
L 100.105174 54.966382 
L 96.850813 58.415425 
L 93.853944 61.922871 
L 91.097857 65.476643 
L 88.565127 69.065032 
L 85.870778 73.280765 
L 83.433976 77.512979 
L 81.232442 81.747354 
L 78.97848 86.572949 
L 76.978032 91.368077 
L 75.000839 96.708826 
L 73.285124 101.977344 
L 71.656103 107.731965 
L 70.286147 113.36616 
L 69.047001 119.410975 
L 68.060677 125.284964 
L 67.243744 131.487924 
L 66.670527 137.469156 
L 66.298874 143.693271 
L 66.165809 149.650299 
L 66.25683 155.343239 
L 66.559494 160.77494 
L 67.065387 165.949995 
L 67.769351 170.874413 
L 68.668539 175.55478 
L 69.671331 179.664691 
L 70.841312 183.578821 
L 72.181484 187.303661 
L 73.696416 190.845754 
L 75.391764 194.211291 
L 77.110206 197.146815 
L 78.992348 199.944296 
L 81.045427 202.608445 
L 83.277616 205.143826 
L 85.698026 207.554859 
L 88.316697 209.845815 
L 91.14461 212.020821 
L 94.193676 214.083858 
L 97.476744 216.038761 
L 101.00771 217.889194 
L 104.802804 219.638371 
L 109.262724 221.434995 
L 114.07758 223.119224 
L 119.271387 224.694835 
L 124.87041 226.165227 
L 131.426409 227.642919 
L 138.530686 229.004029 
L 146.22555 230.251397 
L 155.224953 231.470171 
L 165.02272 232.561958 
L 175.683729 233.528306 
L 188.142691 234.425435 
L 201.762103 235.179666 
L 217.676892 235.824415 
L 235.149729 236.300793 
L 254.314962 236.602713 
L 276.687397 236.721609 
L 301.29812 236.617002 
L 328.323746 236.268746 
L 329.992555 236.24017 
L 329.992555 236.24017 
" clip-path="url(#p1f96330fc8)" style="fill: none; stroke-dasharray: 6.475,2.8; stroke-dashoffset: 0; stroke: #55a868; stroke-width: 1.75"/>
   </g>
   <g id="line2d_33">
    <defs>
     <path id="ma93686ecf9" d="M 0 3.5 
C 0.928211 3.5 1.81853 3.131218 2.474874 2.474874 
C 3.131218 1.81853 3.5 0.928211 3.5 0 
C 3.5 -0.928211 3.131218 -1.81853 2.474874 -2.474874 
C 1.81853 -3.131218 0.928211 -3.5 0 -3.5 
C -0.928211 -3.5 -1.81853 -3.131218 -2.474874 -2.474874 
C -3.131218 -1.81853 -3.5 -0.928211 -3.5 0 
C -3.5 0.928211 -3.131218 1.81853 -2.474874 2.474874 
C -1.81853 3.131218 -0.928211 3.5 0 3.5 
z
"/>
    </defs>
    <g clip-path="url(#p1f96330fc8)">
     <use xlink:href="#ma93686ecf9" x="468.979066" y="139.263413" style="fill: #55a868"/>
     <use xlink:href="#ma93686ecf9" x="468.979066" y="112.998984" style="fill: #55a868"/>
     <use xlink:href="#ma93686ecf9" x="433.35729" y="81.481668" style="fill: #55a868"/>
     <use xlink:href="#ma93686ecf9" x="361.258817" y="49.712214" style="fill: #55a868"/>
     <use xlink:href="#ma93686ecf9" x="269.185448" y="26.911017" style="fill: #55a868"/>
     <use xlink:href="#ma93686ecf9" x="185.17797" y="21.910812" style="fill: #55a868"/>
     <use xlink:href="#ma93686ecf9" x="127.460202" y="35.574536" style="fill: #55a868"/>
     <use xlink:href="#ma93686ecf9" x="94.691727" y="60.672677" style="fill: #55a868"/>
     <use xlink:href="#ma93686ecf9" x="77.699157" y="89.269612" style="fill: #55a868"/>
     <use xlink:href="#ma93686ecf9" x="69.477301" y="116.738485" style="fill: #55a868"/>
     <use xlink:href="#ma93686ecf9" x="66.337006" y="141.182199" style="fill: #55a868"/>
     <use xlink:href="#ma93686ecf9" x="66.586159" y="162.107267" style="fill: #55a868"/>
     <use xlink:href="#ma93686ecf9" x="69.569747" y="179.624383" style="fill: #55a868"/>
     <use xlink:href="#ma93686ecf9" x="75.208004" y="194.069032" style="fill: #55a868"/>
     <use xlink:href="#ma93686ecf9" x="83.80534" y="205.832312" style="fill: #55a868"/>
     <use xlink:href="#ma93686ecf9" x="95.991216" y="215.287058" style="fill: #55a868"/>
     <use xlink:href="#ma93686ecf9" x="112.729655" y="222.755952" style="fill: #55a868"/>
     <use xlink:href="#ma93686ecf9" x="135.369364" y="228.496866" style="fill: #55a868"/>
     <use xlink:href="#ma93686ecf9" x="165.719247" y="232.692712" style="fill: #55a868"/>
     <use xlink:href="#ma93686ecf9" x="206.133196" y="235.437157" style="fill: #55a868"/>
     <use xlink:href="#ma93686ecf9" x="259.573146" y="236.706771" style="fill: #55a868"/>
     <use xlink:href="#ma93686ecf9" x="329.579925" y="236.304121" style="fill: #55a868"/>
    </g>
   </g>
   <g id="line2d_34">
    <path d="M 468.979066 139.263413 
L 469.681436 137.188114 
L 470.165702 135.067724 
L 470.425047 132.902969 
L 470.45298 130.694737 
L 470.243334 128.444079 
L 469.790334 126.152218 
L 469.088764 123.820578 
L 468.133485 121.450728 
L 466.919994 119.044455 
L 465.444498 116.603769 
L 463.703921 114.130903 
L 461.6959 111.628318 
L 459.418786 109.098695 
L 456.871643 106.544943 
L 453.307718 103.323613 
L 449.32273 100.076093 
L 444.920213 96.809456 
L 440.106333 93.531639 
L 434.889492 90.251095 
L 429.280369 86.976659 
L 423.291917 83.717544 
L 416.939368 80.483348 
L 408.860514 76.649278 
L 400.317273 72.883438 
L 391.348947 69.20458 
L 381.99696 65.631215 
L 372.308127 62.182151 
L 362.334802 58.876792 
L 352.129287 55.733355 
L 341.743813 52.768868 
L 331.23054 49.999172 
L 320.641562 47.438915 
L 310.028899 45.101556 
L 299.444505 42.999367 
L 288.94026 41.143427 
L 278.562679 39.542349 
L 268.352603 38.201274 
L 258.349632 37.12375 
L 248.588793 36.311482 
L 239.100543 35.764331 
L 229.910767 35.480315 
L 221.040779 35.45561 
L 212.50732 35.684548 
L 204.32256 36.15962 
L 196.494098 36.87147 
L 189.024962 37.808904 
L 181.917343 38.960951 
L 175.170519 40.316556 
L 168.777495 41.862363 
L 162.730426 43.585205 
L 157.020635 45.472109 
L 151.638614 47.510297 
L 146.574022 49.68719 
L 141.815687 51.990402 
L 137.351603 54.407743 
L 133.168934 56.927222 
L 129.254011 59.53704 
L 125.592334 62.225595 
L 122.16985 64.981864 
L 118.4644 68.2706 
L 115.04969 71.624367 
L 111.906817 75.029666 
L 109.017971 78.473955 
L 106.366428 81.945639 
L 103.606665 85.933214 
L 101.114874 89.928338 
L 98.871319 93.918265 
L 96.621852 98.386941 
L 94.641342 102.821633 
L 92.909802 107.211318 
L 91.253135 112.022376 
L 89.856261 116.752426 
L 88.596904 121.850687 
L 87.606003 126.828839 
L 86.863852 131.678156 
L 86.353742 136.391874 
L 86.045864 141.373881 
L 85.984125 146.185286 
L 86.158715 150.825011 
L 86.560656 155.291406 
L 87.184293 159.58457 
L 87.947803 163.368717 
L 88.893439 167.009429 
L 90.021129 170.508275 
L 91.332033 173.867183 
L 92.828548 177.088434 
L 94.514304 180.174667 
L 96.39415 183.128805 
L 98.473888 185.953338 
L 100.760255 188.651113 
L 103.261022 191.225029 
L 105.984984 193.677875 
L 108.941958 196.012329 
L 112.142785 198.230961 
L 115.599327 200.336231 
L 119.324468 202.330491 
L 123.332119 204.215982 
L 127.637209 205.994835 
L 132.255692 207.669074 
L 137.204332 209.240539 
L 142.997488 210.838536 
L 149.228412 212.317228 
L 155.926235 213.678655 
L 163.120644 214.924144 
L 171.51006 216.143278 
L 180.556964 217.226869 
L 190.301305 218.173754 
L 201.621905 219.038104 
L 213.850444 219.73743 
L 227.039798 220.266439 
L 241.243869 220.618507 
L 257.650971 220.790312 
L 275.354816 220.738368 
L 294.410503 220.445858 
L 314.868478 219.892145 
L 335.260877 219.11773 
L 356.915775 218.068099 
L 378.143662 216.819642 
L 400.423176 215.277503 
L 409.263877 214.599237 
L 409.263877 214.599237 
" clip-path="url(#p1f96330fc8)" style="fill: none; stroke-dasharray: 11.2,2.8,1.75,2.8; stroke-dashoffset: 0; stroke: #c44e52; stroke-width: 1.75"/>
   </g>
   <g id="line2d_35">
    <defs>
     <path id="m8c581de25e" d="M 0 -5 
L -1.12257 -1.545085 
L -4.755283 -1.545085 
L -1.816356 0.59017 
L -2.938926 4.045085 
L -0 1.90983 
L 2.938926 4.045085 
L 1.816356 0.59017 
L 4.755283 -1.545085 
L 1.12257 -1.545085 
z
"/>
    </defs>
    <g clip-path="url(#p1f96330fc8)">
     <use xlink:href="#m8c581de25e" x="468.979066" y="139.263413" style="fill: #c44e52"/>
     <use xlink:href="#m8c581de25e" x="468.979066" y="123.504756" style="fill: #c44e52"/>
     <use xlink:href="#m8c581de25e" x="456.155227" y="105.855059" style="fill: #c44e52"/>
     <use xlink:href="#m8c581de25e" x="429.75166" y="87.226016" style="fill: #c44e52"/>
     <use xlink:href="#m8c581de25e" x="391.136061" y="69.099718" style="fill: #c44e52"/>
     <use xlink:href="#m8c581de25e" x="344.021043" y="53.375175" style="fill: #c44e52"/>
     <use xlink:href="#m8c581de25e" x="293.74245" y="41.939459" style="fill: #c44e52"/>
     <use xlink:href="#m8c581de25e" x="245.712295" y="36.097977" style="fill: #c44e52"/>
     <use xlink:href="#m8c581de25e" x="203.855009" y="36.177687" style="fill: #c44e52"/>
     <use xlink:href="#m8c581de25e" x="169.915811" y="41.545826" style="fill: #c44e52"/>
     <use xlink:href="#m8c581de25e" x="143.805027" y="50.980876" style="fill: #c44e52"/>
     <use xlink:href="#m8c581de25e" x="124.428122" y="63.117891" style="fill: #c44e52"/>
     <use xlink:href="#m8c581de25e" x="110.411649" y="76.75093" style="fill: #c44e52"/>
     <use xlink:href="#m8c581de25e" x="100.505998" y="90.952507" style="fill: #c44e52"/>
     <use xlink:href="#m8c581de25e" x="93.725295" y="105.072665" style="fill: #c44e52"/>
     <use xlink:href="#m8c581de25e" x="89.350132" y="118.687812" style="fill: #c44e52"/>
     <use xlink:href="#m8c581de25e" x="86.88173" y="131.541177" style="fill: #c44e52"/>
     <use xlink:href="#m8c581de25e" x="85.99015" y="143.491902" style="fill: #c44e52"/>
     <use xlink:href="#m8c581de25e" x="86.471465" y="154.476551" style="fill: #c44e52"/>
     <use xlink:href="#m8c581de25e" x="88.216511" y="164.481679" style="fill: #c44e52"/>
     <use xlink:href="#m8c581de25e" x="91.189635" y="173.524865" style="fill: #c44e52"/>
     <use xlink:href="#m8c581de25e" x="95.415075" y="181.641765" style="fill: #c44e52"/>
     <use xlink:href="#m8c581de25e" x="100.968822" y="188.877303" style="fill: #c44e52"/>
     <use xlink:href="#m8c581de25e" x="107.974372" y="195.279644" style="fill: #c44e52"/>
     <use xlink:href="#m8c581de25e" x="116.601123" y="200.89597" style="fill: #c44e52"/>
     <use xlink:href="#m8c581de25e" x="127.064509" y="205.769388" style="fill: #c44e52"/>
     <use xlink:href="#m8c581de25e" x="139.627022" y="209.936461" style="fill: #c44e52"/>
     <use xlink:href="#m8c581de25e" x="154.599235" y="213.424966" style="fill: #c44e52"/>
     <use xlink:href="#m8c581de25e" x="172.339757" y="216.25153" style="fill: #c44e52"/>
     <use xlink:href="#m8c581de25e" x="193.252541" y="218.418776" style="fill: #c44e52"/>
     <use xlink:href="#m8c581de25e" x="217.779308" y="219.911556" style="fill: #c44e52"/>
     <use xlink:href="#m8c581de25e" x="246.383619" y="220.691718" style="fill: #c44e52"/>
     <use xlink:href="#m8c581de25e" x="279.521408" y="220.690625" style="fill: #c44e52"/>
     <use xlink:href="#m8c581de25e" x="317.590108" y="219.798351" style="fill: #c44e52"/>
     <use xlink:href="#m8c581de25e" x="360.844718" y="217.848024" style="fill: #c44e52"/>
     <use xlink:href="#m8c581de25e" x="409.263993" y="214.593274" style="fill: #c44e52"/>
    </g>
   </g>
   <g id="patch_3">
    <path d="M 45.83 247.48 
L 45.83 10.8 
" style="fill: none"/>
   </g>
   <g id="patch_4">
    <path d="M 493.2 247.48 
L 493.2 10.8 
" style="fill: none"/>
   </g>
   <g id="patch_5">
    <path d="M 45.83 247.48 
L 493.2 247.48 
" style="fill: none"/>
   </g>
   <g id="patch_6">
    <path d="M 45.83 10.8 
L 493.2 10.8 
" style="fill: none"/>
   </g>
   <g id="legend_1">
    <g id="line2d_36">
     <path d="M 410.8 23.457812 
L 420.8 23.457812 
L 430.8 23.457812 
" style="fill: none; stroke: #4c72b0; stroke-width: 1.75; stroke-linecap: round"/>
    </g>
    <g id="text_18">
     <!-- exact -->
     <g style="fill: #262626" transform="translate(438.8 26.957812) scale(0.1 -0.1)">
      <defs>
       <path id="ArialMT-65" d="M 2694 1069 
L 3275 997 
Q 3138 488 2766 206 
Q 2394 -75 1816 -75 
Q 1088 -75 661 373 
Q 234 822 234 1631 
Q 234 2469 665 2931 
Q 1097 3394 1784 3394 
Q 2450 3394 2872 2941 
Q 3294 2488 3294 1666 
Q 3294 1616 3291 1516 
L 816 1516 
Q 847 969 1125 678 
Q 1403 388 1819 388 
Q 2128 388 2347 550 
Q 2566 713 2694 1069 
z
M 847 1978 
L 2700 1978 
Q 2663 2397 2488 2606 
Q 2219 2931 1791 2931 
Q 1403 2931 1139 2672 
Q 875 2413 847 1978 
z
" transform="scale(0.015625)"/>
       <path id="ArialMT-78" d="M 47 0 
L 1259 1725 
L 138 3319 
L 841 3319 
L 1350 2541 
Q 1494 2319 1581 2169 
Q 1719 2375 1834 2534 
L 2394 3319 
L 3066 3319 
L 1919 1756 
L 3153 0 
L 2463 0 
L 1781 1031 
L 1600 1309 
L 728 0 
L 47 0 
z
" transform="scale(0.015625)"/>
       <path id="ArialMT-61" d="M 2588 409 
Q 2275 144 1986 34 
Q 1697 -75 1366 -75 
Q 819 -75 525 192 
Q 231 459 231 875 
Q 231 1119 342 1320 
Q 453 1522 633 1644 
Q 813 1766 1038 1828 
Q 1203 1872 1538 1913 
Q 2219 1994 2541 2106 
Q 2544 2222 2544 2253 
Q 2544 2597 2384 2738 
Q 2169 2928 1744 2928 
Q 1347 2928 1158 2789 
Q 969 2650 878 2297 
L 328 2372 
Q 403 2725 575 2942 
Q 747 3159 1072 3276 
Q 1397 3394 1825 3394 
Q 2250 3394 2515 3294 
Q 2781 3194 2906 3042 
Q 3031 2891 3081 2659 
Q 3109 2516 3109 2141 
L 3109 1391 
Q 3109 606 3145 398 
Q 3181 191 3288 0 
L 2700 0 
Q 2613 175 2588 409 
z
M 2541 1666 
Q 2234 1541 1622 1453 
Q 1275 1403 1131 1340 
Q 988 1278 909 1158 
Q 831 1038 831 891 
Q 831 666 1001 516 
Q 1172 366 1500 366 
Q 1825 366 2078 508 
Q 2331 650 2450 897 
Q 2541 1088 2541 1459 
L 2541 1666 
z
" transform="scale(0.015625)"/>
       <path id="ArialMT-63" d="M 2588 1216 
L 3141 1144 
Q 3050 572 2676 248 
Q 2303 -75 1759 -75 
Q 1078 -75 664 370 
Q 250 816 250 1647 
Q 250 2184 428 2587 
Q 606 2991 970 3192 
Q 1334 3394 1763 3394 
Q 2303 3394 2647 3120 
Q 2991 2847 3088 2344 
L 2541 2259 
Q 2463 2594 2264 2762 
Q 2066 2931 1784 2931 
Q 1359 2931 1093 2626 
Q 828 2322 828 1663 
Q 828 994 1084 691 
Q 1341 388 1753 388 
Q 2084 388 2306 591 
Q 2528 794 2588 1216 
z
" transform="scale(0.015625)"/>
       <path id="ArialMT-74" d="M 1650 503 
L 1731 6 
Q 1494 -44 1306 -44 
Q 1000 -44 831 53 
Q 663 150 594 308 
Q 525 466 525 972 
L 525 2881 
L 113 2881 
L 113 3319 
L 525 3319 
L 525 4141 
L 1084 4478 
L 1084 3319 
L 1650 3319 
L 1650 2881 
L 1084 2881 
L 1084 941 
Q 1084 700 1114 631 
Q 1144 563 1211 522 
Q 1278 481 1403 481 
Q 1497 481 1650 503 
z
" transform="scale(0.015625)"/>
      </defs>
      <use xlink:href="#ArialMT-65"/>
      <use xlink:href="#ArialMT-78" x="55.615234"/>
      <use xlink:href="#ArialMT-61" x="105.615234"/>
      <use xlink:href="#ArialMT-63" x="161.230469"/>
      <use xlink:href="#ArialMT-74" x="211.230469"/>
     </g>
    </g>
    <g id="line2d_37">
     <path d="M 410.8 37.603125 
L 420.8 37.603125 
L 430.8 37.603125 
" style="fill: none; stroke-dasharray: 6.475,2.8; stroke-dashoffset: 0; stroke: #55a868; stroke-width: 1.75"/>
     <g>
      <use xlink:href="#ma93686ecf9" x="420.8" y="37.603125" style="fill: #55a868"/>
     </g>
    </g>
    <g id="text_19">
     <!-- $\Delta t = 0.2$ -->
     <g style="fill: #262626" transform="translate(438.8 41.103125) scale(0.1 -0.1)">
      <defs>
       <path id="DejaVuSans-394" d="M 2188 4044 
L 906 525 
L 3472 525 
L 2188 4044 
z
M 50 0 
L 1831 4666 
L 2547 4666 
L 4325 0 
L 50 0 
z
" transform="scale(0.015625)"/>
       <path id="DejaVuSans-Oblique-74" d="M 2706 3500 
L 2619 3053 
L 1472 3053 
L 1100 1153 
Q 1081 1047 1072 975 
Q 1063 903 1063 863 
Q 1063 663 1183 572 
Q 1303 481 1569 481 
L 2150 481 
L 2053 0 
L 1503 0 
Q 991 0 739 200 
Q 488 400 488 806 
Q 488 878 497 964 
Q 506 1050 525 1153 
L 897 3053 
L 409 3053 
L 500 3500 
L 978 3500 
L 1172 4494 
L 1747 4494 
L 1556 3500 
L 2706 3500 
z
" transform="scale(0.015625)"/>
       <path id="DejaVuSans-3d" d="M 678 2906 
L 4684 2906 
L 4684 2381 
L 678 2381 
L 678 2906 
z
M 678 1631 
L 4684 1631 
L 4684 1100 
L 678 1100 
L 678 1631 
z
" transform="scale(0.015625)"/>
       <path id="DejaVuSans-30" d="M 2034 4250 
Q 1547 4250 1301 3770 
Q 1056 3291 1056 2328 
Q 1056 1369 1301 889 
Q 1547 409 2034 409 
Q 2525 409 2770 889 
Q 3016 1369 3016 2328 
Q 3016 3291 2770 3770 
Q 2525 4250 2034 4250 
z
M 2034 4750 
Q 2819 4750 3233 4129 
Q 3647 3509 3647 2328 
Q 3647 1150 3233 529 
Q 2819 -91 2034 -91 
Q 1250 -91 836 529 
Q 422 1150 422 2328 
Q 422 3509 836 4129 
Q 1250 4750 2034 4750 
z
" transform="scale(0.015625)"/>
       <path id="DejaVuSans-2e" d="M 684 794 
L 1344 794 
L 1344 0 
L 684 0 
L 684 794 
z
" transform="scale(0.015625)"/>
       <path id="DejaVuSans-32" d="M 1228 531 
L 3431 531 
L 3431 0 
L 469 0 
L 469 531 
Q 828 903 1448 1529 
Q 2069 2156 2228 2338 
Q 2531 2678 2651 2914 
Q 2772 3150 2772 3378 
Q 2772 3750 2511 3984 
Q 2250 4219 1831 4219 
Q 1534 4219 1204 4116 
Q 875 4013 500 3803 
L 500 4441 
Q 881 4594 1212 4672 
Q 1544 4750 1819 4750 
Q 2544 4750 2975 4387 
Q 3406 4025 3406 3419 
Q 3406 3131 3298 2873 
Q 3191 2616 2906 2266 
Q 2828 2175 2409 1742 
Q 1991 1309 1228 531 
z
" transform="scale(0.015625)"/>
      </defs>
      <use xlink:href="#DejaVuSans-394" transform="translate(0 0.78125)"/>
      <use xlink:href="#DejaVuSans-Oblique-74" transform="translate(68.408203 0.78125)"/>
      <use xlink:href="#DejaVuSans-3d" transform="translate(127.099609 0.78125)"/>
      <use xlink:href="#DejaVuSans-30" transform="translate(230.371094 0.78125)"/>
      <use xlink:href="#DejaVuSans-2e" transform="translate(293.994141 0.78125)"/>
      <use xlink:href="#DejaVuSans-32" transform="translate(320.28125 0.78125)"/>
     </g>
    </g>
    <g id="line2d_38">
     <path d="M 410.8 51.748437 
L 420.8 51.748437 
L 430.8 51.748437 
" style="fill: none; stroke-dasharray: 11.2,2.8,1.75,2.8; stroke-dashoffset: 0; stroke: #c44e52; stroke-width: 1.75"/>
     <g>
      <use xlink:href="#m8c581de25e" x="420.8" y="51.748437" style="fill: #c44e52"/>
     </g>
    </g>
    <g id="text_20">
     <!-- $\Delta t = 0.12$ -->
     <g style="fill: #262626" transform="translate(438.8 55.248437) scale(0.1 -0.1)">
      <defs>
       <path id="DejaVuSans-31" d="M 794 531 
L 1825 531 
L 1825 4091 
L 703 3866 
L 703 4441 
L 1819 4666 
L 2450 4666 
L 2450 531 
L 3481 531 
L 3481 0 
L 794 0 
L 794 531 
z
" transform="scale(0.015625)"/>
      </defs>
      <use xlink:href="#DejaVuSans-394" transform="translate(0 0.78125)"/>
      <use xlink:href="#DejaVuSans-Oblique-74" transform="translate(68.408203 0.78125)"/>
      <use xlink:href="#DejaVuSans-3d" transform="translate(127.099609 0.78125)"/>
      <use xlink:href="#DejaVuSans-30" transform="translate(230.371094 0.78125)"/>
      <use xlink:href="#DejaVuSans-2e" transform="translate(293.994141 0.78125)"/>
      <use xlink:href="#DejaVuSans-31" transform="translate(325.78125 0.78125)"/>
      <use xlink:href="#DejaVuSans-32" transform="translate(389.404297 0.78125)"/>
     </g>
    </g>
   </g>
  </g>
 </g>
 <defs>
  <clipPath id="p1f96330fc8">
   <rect x="45.83" y="10.8" width="447.37" height="236.68"/>
  </clipPath>
 </defs>
</svg>
